<?xml version="1.0" encoding="UTF-8"?>
<svg width="400px" height="600px" viewBox="0 0 400 600" version="1.1" xmlns="http://www.w3.org/2000/svg" xmlns:xlink="http://www.w3.org/1999/xlink">
    <title>Book Placeholder</title>
    <defs>
        <linearGradient x1="50%" y1="0%" x2="50%" y2="100%" id="linearGradient-1">
            <stop stop-color="#E6E7EE" offset="0%"></stop>
            <stop stop-color="#E2E4EC" offset="100%"></stop>
        </linearGradient>
    </defs>
    <g id="Page-1" stroke="none" stroke-width="1" fill="none" fill-rule="evenodd">
        <g id="Group-10">
            <g id="Group-9">
                <g id="Group-8">
                    <path d="M3,0 L397,0 C398.656854,-3.04359188e-16 400,1.34314575 400,3 L400,584 L400,584 L0,584 L0,3 C-2.02906125e-16,1.34314575 1.34314575,3.04359188e-16 3,0 Z" id="Combined-Shape" fill="#F1F2F7"></path>
                    <path d="M381.643484,598.685213 L400,584 L400,584 L0,584 L18.3565161,598.685213 C19.4203944,599.536315 20.7422574,600 22.1046864,600 L377.895314,600 C379.257743,600 380.579606,599.536315 381.643484,598.685213 Z" id="Path-9" fill="url(#linearGradient-1)"></path>
                </g>
                <rect id="Rectangle" fill="#E2E4EB" opacity="0.5" x="50" y="154" width="300" height="42" rx="5"></rect>
                <rect id="Rectangle" fill="#E2E4EB" opacity="0.5" x="50" y="214" width="300" height="42" rx="5"></rect>
                <rect id="Rectangle" fill="#E2E4EB" opacity="0.5" x="50" y="515" width="300" height="26" rx="5"></rect>
            </g>
        </g>
    </g>
</svg>